<?xml version="1.0" encoding="UTF-8"?>
<svg width="35px" height="50px" viewBox="0 0 35 50" version="1.1" xmlns="http://www.w3.org/2000/svg" xmlns:xlink="http://www.w3.org/1999/xlink">
    <title>bananas-v4</title>
    <g id="home-page" stroke="none" stroke-width="1" fill="none" fill-rule="evenodd">
        <g id="bananas-v4" transform="translate(1.000000, 1.000000)">
            <path d="M19.885022,13.5631042 L21.7350902,11.4563843 C21.0805966,9.33269291 20.7533497,8.17605059 20.7533497,7.9864573 C20.7533497,7.70206736 20.7259176,7.4511316 21.0152695,6.88772856 C21.4269113,6.08621234 22.4328366,5.05832668 23.7460162,4.46727234 C25.9822583,3.46075313 27.2253642,4.79731961 27.2253642,5.01285525 C27.6068994,6.73574053 27.4320823,10.8066732 27.5375664,10.8322727 C29.3498773,11.2720951 30.5564817,12.2055765 31.0097774,13.034173 C31.4630729,13.8627695 33,19.1359905 33,21.7155948 C33,24.5792446 32.7911783,33.4156982 32.5795596,34.2582704 C31.6867359,40.4347961 30.5163269,41.3516452 29.0859322,43.0703991 C25.5259882,46.5891129 21.8210369,48.2241021 17.9710781,47.9753669 C15.8412558,47.6336392 14.131871,46.6909607 12.8429238,45.1473314 C12.5123494,44.6394011 12.4325725,43.7015943 12.6035931,42.3339108 C11.482272,42.9738334 10.1395299,43.4519591 8.5753666,43.7682877 C7.04945204,44.0805259 5.45989218,43.9887294 3.80668698,43.4928985 C2.19852229,42.8207035 1.12467958,42.0621985 0.585158894,41.2173833 C-0.298752588,38.9912942 -0.295988015,38.0053243 1.39443992,35.258309 C2.58447499,33.7371337 3.84305713,33.3099824 5.45752391,30.1416194 C6.58413206,27.9306704 5.9896392,16.5010349 6.09925443,14.7209326 C6.2962028,12.353991 6.55254518,11.48286 7.08691416,10.2992605 C7.48466582,9.41826138 8.28378723,8.52946782 9.48427838,7.63287987 L8.35384324,4.16289365 C8.29842663,3.40224058 8.93419933,2.40939013 10.2611613,1.18434225 C11.9120257,0.0557422374 13.0677783,-0.266246772 13.7284192,0.218375225 C14.2313204,0.500453363 14.5947685,0.850199369 14.8187635,1.26761324 C15.091341,2.2405837 15.2276297,4.11395548 15.2276297,6.88772856 C17.0274404,7.8090886 18.0251509,8.41392159 18.2207613,8.70222753 C18.3453912,8.88591705 18.9001448,10.5062093 19.885022,13.5631042 Z" id="background" stroke="#FFFFFF" stroke-width="0.537950661" fill="#FFFFFF" fill-rule="nonzero"></path>
            <g id="banana" transform="translate(3.000000, 2.000000)">
                <path d="M8.94864887,7.09127092 C7.49336349,8.28272881 6.63155367,9.39466701 6.36321939,10.4270855 C5.68527261,14.2823079 6.06306052,14.7280249 6.06306052,19.7898342 C6.06306052,24.6661595 6.06306052,25.3716548 5.40681059,28.5907939 C3.87298628,32.638333 2.57704284,32.638333 1.28593049,34.2703216 C0.407213569,35.3810352 0.0775069357,36.7783221 0.296810589,38.4621822 C1.45677563,39.6376768 2.89874867,40.139268 4.62272974,39.9669558 C7.99240532,39.6301561 11.0282586,36.9791224 12.5755462,34.9218523 C13.7601647,33.3467862 14.4673914,30.4486651 14.6972263,26.2274889 C14.8990754,22.8586621 15,19.5761304 15,16.3798941 C14.6972263,13.1824346 14.126654,11.5414767 13.2282693,8.61321095 C12.5755462,7.47970563 10.7657408,7.09127092 10.2534158,7.09127092 C9.91186585,7.09127092 9.47694353,7.09127092 8.94864887,7.09127092 Z" id="background-banana" stroke="#80514E" stroke-width="0.537950661" fill="#FDD449" fill-rule="nonzero"></path>
                <path d="M12.2404186,13.3402069 C12.2404186,14.5238429 13.1103589,25.1799587 11.7593633,29.0699743 C10.4083678,32.95999 4.00542506,37.4012721 2.80692292,37.640223 C1.55536172,38.1104236 1.31102345,38.5122703 2.07390811,38.8457632 C2.99042244,39.3039502 3.7237774,39.5330436 4.27397299,39.5330436 C5.09926637,39.5330436 9.55060249,38.1776581 11.4948812,35.7879887 C12.791067,34.1948758 13.7089663,31.3128789 14.2485792,27.1419984 L14.649955,15.6404178 C13.6235576,8.27369944 12.8203787,7.50696248 12.2404186,13.3402069 Z" id="line-shadow" stroke="#FECA1B" stroke-width="0.537950661" fill="#FECA1B" fill-rule="nonzero" stroke-linecap="round"></path>
                <path d="M9.02247339,7.57282652 C7.80750609,8.71970468 7.08801096,9.79003846 6.86398798,10.7838279 C6.29799372,14.4948028 6.61339575,14.9238428 6.61339575,19.7962589 C6.61339575,24.4901311 6.61339575,25.1692294 6.06551543,28.2679208 C4.7849787,32.1640168 2.5074524,33.4053187 1.42203325,34.939874 C0.628084089,36.0623516 0.378106889,37.2781455 0.672101649,38.5872555 C2.11582887,39.3541515 3.55733847,39.6546671 4.99663045,39.4888021 C7.80985573,39.1646042 11.0032602,36.2864453 12.295037,34.3061503 C13.2840339,32.790017 13.9720234,30.0802247 14.3590055,26.1767735 C14.5529718,22.7757379 14.649955,19.5368974 14.649955,16.4602518 C14.3971797,13.3824288 13.6555191,11.6482942 12.9054888,8.82959274 C12.360553,7.73849876 10.5395004,7.57282652 10.1117781,7.57282652 C9.82662983,7.57282652 9.46352827,7.57282652 9.02247339,7.57282652 Z" id="inner-shadow" stroke="#FCB940" stroke-width="0.860721058"></path>
                <path d="M8.94864887,7.09127092 C7.49336349,8.28272881 6.63155367,9.39466701 6.36321939,10.4270855 C5.68527261,14.2823079 6.06306052,14.7280249 6.06306052,19.7898342 C6.06306052,24.6661595 6.06306052,25.3716548 5.40681059,28.5907939 C3.87298628,32.638333 2.57704284,32.638333 1.28593049,34.2703216 C0.407213569,35.3810352 0.0775069357,36.7783221 0.296810589,38.4621822 C1.45677563,39.6376768 2.89874867,40.139268 4.62272974,39.9669558 C7.99240532,39.6301561 11.0282586,36.9791224 12.5755462,34.9218523 C13.7601647,33.3467862 14.4673914,30.4486651 14.6972263,26.2274889 C14.8990754,22.8586621 15,19.5761304 15,16.3798941 C14.6972263,13.1824346 14.126654,11.5414767 13.2282693,8.61321095 C12.5755462,7.47970563 10.7657408,7.09127092 10.2534158,7.09127092 C9.91186585,7.09127092 9.47694353,7.09127092 8.94864887,7.09127092 Z" id="outline-banana" stroke="#80514E" stroke-width="0.537950661"></path>
                <path d="M0.401240223,36.715114 C0.0531850211,36.715114 0,37.7635747 0,38.1701168 C0,38.5766587 1.00688638,39.2439794 0.983861508,39.2439794 C1.5391751,39.2439794 1.67285009,38.8225019 1.38488648,37.9795468 C1.13337758,37.1365915 0.805495493,36.715114 0.401240223,36.715114 Z" id="end" stroke="#80514E" stroke-width="0.537950661" fill="#80514E" fill-rule="nonzero"></path>
                <path d="M12.2404186,13.3402069 C12.8203787,21.2333747 12.660027,26.4766304 11.7593633,29.0699743 C10.4083678,32.95999 4.00542506,37.3075519 2.80692292,37.5465029" id="black-line" stroke="#80514E" stroke-width="0.537950661" stroke-linecap="round"></path>
                <path d="M7.48892995,2.31261272 C7.48892995,2.31261272 7.92251668,3.7148647 8.78969013,6.51936862 L10.1465117,7.05431215 L10.3118434,0.78169141 C8.4299011,1.80230562 7.48892995,2.31261272 7.48892995,2.31261272 Z" id="Path-3" fill="#FCB940" fill-rule="nonzero"></path>
                <g id="stem" transform="translate(7.488930, 0.000000)" stroke="#80514E" stroke-width="0.537950661">
                    <g id="path-1-link">
                        <path d="M-5.01351444e-25,2.31261272 C0.205118545,1.16596803 2.68698109,-0.4388159 2.76448588,0.111633454 C2.97108853,1.57895297 2.97108853,3.9054988 2.76448588,7.09127092 C2.01681241,7.16695275 1.55606477,7.16695275 1.38224294,7.09127092 C1.09030808,5.70205726 0.56230679,4.32224477 -5.01351444e-25,2.31261272 Z" id="path-1"></path>
                    </g>
                </g>
                <path d="M8.92480495,6.41182801 L10.0624276,6.89301626 C10.0296862,7.15495433 10.0296862,7.29086064 10.0624276,7.30073516 C10.6360922,7.21458807 10.0405689,7.41207306 10.0405689,7.47234726 C9.7157507,7.625486 9.07984435,7.36172468 8.98383609,7.32330324 C9.05349732,7.25438813 9.08832791,7.17704402 9.08832791,7.09127092 L8.92480495,6.41182801 Z" id="Path-4" fill="#FCB940" fill-rule="nonzero"></path>
                <path d="M7.48892995,2.31261272 C8.13116169,2.16874053 8.66479447,1.97352168 9.08982827,1.72695615 C9.85481838,1.28317924 10.1427284,1.2634634 10.2534158,0.928995586 C10.3110894,0.754721416 10.4083678,0.111633454 10.2534158,0.111633454 C9.0544554,0.111633454 8.1329601,0.845293213 7.48892995,2.31261272 Z" id="Path-2" stroke="#80514E" stroke-width="0.537950661" fill="#80514E" fill-rule="nonzero" stroke-linecap="round" stroke-linejoin="round"></path>
                <path d="M9.79455492,10.2622229 C9.24975201,10.2238233 8.69998347,11.1715944 8.14524924,13.1055362 C8.14524924,17.717323 8.14524924,21.698102 8.14524924,25.0478729 C7.84444875,27.8107603 7.35819386,29.6199767 6.68648458,30.4755221 C5.69770058,32.0878148 4.78649565,33.3755451 3.95286984,34.3387126 C2.7024311,35.7834641 2.1522132,35.7834641 2.1522132,36.715114 C2.1522132,37.3362142 2.66038629,37.3362142 3.67673247,36.715114 L5.02098681,35.7834641 C7.46572357,33.764735 8.82565954,32.5363573 9.10079468,32.098331 C9.40675492,31.6112301 10.4363798,30.6630304 11.0616649,28.3956484 C11.2798125,27.604611 11.5518766,26.5781215 11.7290566,25.0478729 C12.0961322,21.8775564 12.0113442,17.975001 11.4746926,13.3402069 C10.8994037,11.3266172 10.3393578,10.3006225 9.79455492,10.2622229 Z" id="Path-6" fill="#FDDA63" fill-rule="nonzero"></path>
            </g>
            <g id="banana" transform="translate(15.000000, 6.000000)">
                <path d="M8.94864887,7.09127092 C7.49336349,8.28272881 6.63155367,9.39466701 6.36321939,10.4270855 C5.68527261,14.2823079 6.06306052,14.7280249 6.06306052,19.7898342 C6.06306052,24.6661595 6.06306052,25.3716548 5.40681059,28.5907939 C3.87298628,32.638333 2.57704284,32.638333 1.28593049,34.2703216 C0.407213569,35.3810352 0.0775069357,36.7783221 0.296810589,38.4621822 C1.45677563,39.6376768 2.89874867,40.139268 4.62272974,39.9669558 C7.99240532,39.6301561 11.0282586,36.9791224 12.5755462,34.9218523 C13.7601647,33.3467862 14.4673914,30.4486651 14.6972263,26.2274889 C14.8990754,22.8586621 15,19.5761304 15,16.3798941 C14.6972263,13.1824346 14.126654,11.5414767 13.2282693,8.61321095 C12.5755462,7.47970563 10.7657408,7.09127092 10.2534158,7.09127092 C9.91186585,7.09127092 9.47694353,7.09127092 8.94864887,7.09127092 Z" id="background-banana" stroke="#80514E" stroke-width="0.537950661" fill="#FDD449" fill-rule="nonzero"></path>
                <path d="M12.2404186,13.3402069 C12.2404186,14.5238429 13.1103589,25.1799587 11.7593633,29.0699743 C10.4083678,32.95999 4.00542506,37.4012721 2.80692292,37.640223 C1.55536172,38.1104236 1.31102345,38.5122703 2.07390811,38.8457632 C2.99042244,39.3039502 3.7237774,39.5330436 4.27397299,39.5330436 C5.09926637,39.5330436 9.55060249,38.1776581 11.4948812,35.7879887 C12.791067,34.1948758 13.7089663,31.3128789 14.2485792,27.1419984 L14.649955,15.6404178 C13.6235576,8.27369944 12.8203787,7.50696248 12.2404186,13.3402069 Z" id="line-shadow" stroke="#FECA1B" stroke-width="0.537950661" fill="#FECA1B" fill-rule="nonzero" stroke-linecap="round"></path>
                <path d="M9.02247339,7.57282652 C7.80750609,8.71970468 7.08801096,9.79003846 6.86398798,10.7838279 C6.29799372,14.4948028 6.61339575,14.9238428 6.61339575,19.7962589 C6.61339575,24.4901311 6.61339575,25.1692294 6.06551543,28.2679208 C4.7849787,32.1640168 2.5074524,33.4053187 1.42203325,34.939874 C0.628084089,36.0623516 0.378106889,37.2781455 0.672101649,38.5872555 C2.11582887,39.3541515 3.55733847,39.6546671 4.99663045,39.4888021 C7.80985573,39.1646042 11.0032602,36.2864453 12.295037,34.3061503 C13.2840339,32.790017 13.9720234,30.0802247 14.3590055,26.1767735 C14.5529718,22.7757379 14.649955,19.5368974 14.649955,16.4602518 C14.3971797,13.3824288 13.6555191,11.6482942 12.9054888,8.82959274 C12.360553,7.73849876 10.5395004,7.57282652 10.1117781,7.57282652 C9.82662983,7.57282652 9.46352827,7.57282652 9.02247339,7.57282652 Z" id="inner-shadow" stroke="#FCB940" stroke-width="0.860721058"></path>
                <path d="M8.94864887,7.09127092 C7.49336349,8.28272881 6.63155367,9.39466701 6.36321939,10.4270855 C5.68527261,14.2823079 6.06306052,14.7280249 6.06306052,19.7898342 C6.06306052,24.6661595 6.06306052,25.3716548 5.40681059,28.5907939 C3.87298628,32.638333 2.57704284,32.638333 1.28593049,34.2703216 C0.407213569,35.3810352 0.0775069357,36.7783221 0.296810589,38.4621822 C1.45677563,39.6376768 2.89874867,40.139268 4.62272974,39.9669558 C7.99240532,39.6301561 11.0282586,36.9791224 12.5755462,34.9218523 C13.7601647,33.3467862 14.4673914,30.4486651 14.6972263,26.2274889 C14.8990754,22.8586621 15,19.5761304 15,16.3798941 C14.6972263,13.1824346 14.126654,11.5414767 13.2282693,8.61321095 C12.5755462,7.47970563 10.7657408,7.09127092 10.2534158,7.09127092 C9.91186585,7.09127092 9.47694353,7.09127092 8.94864887,7.09127092 Z" id="outline-banana" stroke="#80514E" stroke-width="0.537950661"></path>
                <path d="M0.401240223,36.715114 C0.0531850211,36.715114 0,37.7635747 0,38.1701168 C0,38.5766587 1.00688638,39.2439794 0.983861508,39.2439794 C1.5391751,39.2439794 1.67285009,38.8225019 1.38488648,37.9795468 C1.13337758,37.1365915 0.805495493,36.715114 0.401240223,36.715114 Z" id="end" stroke="#80514E" stroke-width="0.537950661" fill="#80514E" fill-rule="nonzero"></path>
                <path d="M12.2404186,13.3402069 C12.8203787,21.2333747 12.660027,26.4766304 11.7593633,29.0699743 C10.4083678,32.95999 4.00542506,37.3075519 2.80692292,37.5465029" id="black-line" stroke="#80514E" stroke-width="0.537950661" stroke-linecap="round"></path>
                <path d="M7.48892995,2.31261272 C7.48892995,2.31261272 7.92251668,3.7148647 8.78969013,6.51936862 L10.1465117,7.05431215 L10.3118434,0.78169141 C8.4299011,1.80230562 7.48892995,2.31261272 7.48892995,2.31261272 Z" id="Path-3" fill="#FCB940" fill-rule="nonzero"></path>
                <g id="stem" transform="translate(7.488930, 0.000000)" stroke="#80514E" stroke-width="0.537950661">
                    <g id="path-3-link">
                        <path d="M-5.01351444e-25,2.31261272 C0.205118545,1.16596803 2.68698109,-0.4388159 2.76448588,0.111633454 C2.97108853,1.57895297 2.97108853,3.9054988 2.76448588,7.09127092 C2.01681241,7.16695275 1.55606477,7.16695275 1.38224294,7.09127092 C1.09030808,5.70205726 0.56230679,4.32224477 -5.01351444e-25,2.31261272 Z" id="path-3"></path>
                    </g>
                </g>
                <path d="M8.92480495,6.41182801 L10.0624276,6.89301626 C10.0296862,7.15495433 10.0296862,7.29086064 10.0624276,7.30073516 C10.6360922,7.21458807 10.0405689,7.41207306 10.0405689,7.47234726 C9.7157507,7.625486 9.07984435,7.36172468 8.98383609,7.32330324 C9.05349732,7.25438813 9.08832791,7.17704402 9.08832791,7.09127092 L8.92480495,6.41182801 Z" id="Path-4" fill="#FCB940" fill-rule="nonzero"></path>
                <path d="M7.48892995,2.31261272 C8.13116169,2.16874053 8.66479447,1.97352168 9.08982827,1.72695615 C9.85481838,1.28317924 10.1427284,1.2634634 10.2534158,0.928995586 C10.3110894,0.754721416 10.4083678,0.111633454 10.2534158,0.111633454 C9.0544554,0.111633454 8.1329601,0.845293213 7.48892995,2.31261272 Z" id="Path-2" stroke="#80514E" stroke-width="0.537950661" fill="#80514E" fill-rule="nonzero" stroke-linecap="round" stroke-linejoin="round"></path>
                <path d="M9.79455492,10.2622229 C9.24975201,10.2238233 8.69998347,11.1715944 8.14524924,13.1055362 C8.14524924,17.717323 8.14524924,21.698102 8.14524924,25.0478729 C7.84444875,27.8107603 7.35819386,29.6199767 6.68648458,30.4755221 C5.69770058,32.0878148 4.78649565,33.3755451 3.95286984,34.3387126 C2.7024311,35.7834641 2.1522132,35.7834641 2.1522132,36.715114 C2.1522132,37.3362142 2.66038629,37.3362142 3.67673247,36.715114 L5.02098681,35.7834641 C7.46572357,33.764735 8.82565954,32.5363573 9.10079468,32.098331 C9.40675492,31.6112301 10.4363798,30.6630304 11.0616649,28.3956484 C11.2798125,27.604611 11.5518766,26.5781215 11.7290566,25.0478729 C12.0961322,21.8775564 12.0113442,17.975001 11.4746926,13.3402069 C10.8994037,11.3266172 10.3393578,10.3006225 9.79455492,10.2622229 Z" id="Path-6" fill="#FDDA63" fill-rule="nonzero"></path>
            </g>
        </g>
    </g>
</svg>