<?xml version="1.0" encoding="UTF-8"?>
<svg width="32px" height="32px" viewBox="0 0 32 32" version="1.1" xmlns="http://www.w3.org/2000/svg" xmlns:xlink="http://www.w3.org/1999/xlink">
    <title>favicon-sm</title>
    <g id="home-page" stroke="none" stroke-width="1" fill="none" fill-rule="evenodd">
        <g id="favicon-sm">
            <rect id="Rectangle" x="0" y="0" width="32" height="32"></rect>
            <g id="bananas-v4" transform="translate(4.000000, 0.000000)">
                <g id="banana" transform="translate(2.090909, 1.333333)">
                    <path d="M6.23693709,4.72751395 C5.22264728,5.52181921 4.62199195,6.26311134 4.43497109,6.95139033 C3.96246273,9.52153857 4.22576946,9.81868326 4.22576946,13.1932228 C4.22576946,16.4441063 4.22576946,16.9144365 3.76838314,19.0605292 C2.69935408,21.7588887 1.79612077,21.7588887 0.896254584,22.8468811 C0.283815518,23.5873568 0.0540199855,24.5188814 0.206867986,25.6414548 C1.01532847,26.4251178 2.02033999,26.759512 3.22190255,26.6446372 C5.57046431,26.4201041 7.68636207,24.6527483 8.76477463,23.2812349 C9.59041784,22.2311908 10.0833334,20.2991101 10.2435214,17.4849926 C10.3842041,15.2391081 10.4545455,13.0507536 10.4545455,10.9199294 C10.2435214,8.78828973 9.84584978,7.69431781 9.21970285,5.74214063 C8.76477463,4.98647042 7.50339509,4.72751395 7.14632013,4.72751395 C6.90827014,4.72751395 6.60514246,4.72751395 6.23693709,4.72751395 Z" id="background-banana" stroke="#80514E" stroke-width="0.578733766" fill="#FDD449" fill-rule="nonzero"></path>
                    <path d="M8.53120082,8.8934713 C8.53120082,9.68256194 9.13752284,16.7866391 8.1959199,19.3799829 C7.25431696,21.9733266 2.79165989,24.9341814 1.95634021,25.093482 C1.08403999,25.4069491 0.913743616,25.6748469 1.4454511,25.8971755 C2.08423382,26.2026334 2.59536001,26.3553624 2.97882966,26.3553624 C3.55403414,26.3553624 6.65648052,25.4517721 8.01158385,23.8586591 C8.91498606,22.7965839 9.5547341,20.8752526 9.93082794,18.0946656 L10.2105747,10.4269452 C9.49520679,5.51579963 8.93541549,5.00464166 8.53120082,8.8934713 Z" id="line-shadow" stroke="#FECA1B" stroke-width="0.578733766" fill="#FECA1B" fill-rule="nonzero" stroke-linecap="round"></path>
                    <path d="M6.28839054,5.04855101 C5.44159515,5.81313645 4.94012885,6.5266923 4.78399162,7.18921857 C4.38951077,9.66320186 4.60933643,9.94922854 4.60933643,13.197506 C4.60933643,16.3267541 4.60933643,16.7794863 4.22748045,18.8452805 C3.33498516,21.4426779 1.74761834,22.2702125 0.991114082,23.2932493 C0.437755577,24.0415678 0.263529044,24.852097 0.468434483,25.724837 C1.47466861,26.236101 2.47935711,26.4364447 3.48250001,26.3258681 C5.44323278,26.1097361 7.66893894,24.1909636 8.56926818,22.8707669 C9.25856906,21.8600114 9.7380769,20.0534832 10.0077917,17.4511824 C10.1429803,15.1838253 10.2105747,13.0245983 10.2105747,10.9735012 C10.034398,8.92161921 9.51748298,7.76552944 8.99473463,5.88639516 C8.61493085,5.15899918 7.34571239,5.04855101 7.04760289,5.04855101 C6.84886322,5.04855101 6.59579243,5.04855101 6.28839054,5.04855101 Z" id="inner-shadow" stroke="#FCB940" stroke-width="0.584304542"></path>
                    <path d="M6.23693709,4.72751395 C5.22264728,5.52181921 4.62199195,6.26311134 4.43497109,6.95139033 C3.96246273,9.52153857 4.22576946,9.81868326 4.22576946,13.1932228 C4.22576946,16.4441063 4.22576946,16.9144365 3.76838314,19.0605292 C2.69935408,21.7588887 1.79612077,21.7588887 0.896254584,22.8468811 C0.283815518,23.5873568 0.0540199855,24.5188814 0.206867986,25.6414548 C1.01532847,26.4251178 2.02033999,26.759512 3.22190255,26.6446372 C5.57046431,26.4201041 7.68636207,24.6527483 8.76477463,23.2812349 C9.59041784,22.2311908 10.0833334,20.2991101 10.2435214,17.4849926 C10.3842041,15.2391081 10.4545455,13.0507536 10.4545455,10.9199294 C10.2435214,8.78828973 9.84584978,7.69431781 9.21970285,5.74214063 C8.76477463,4.98647042 7.50339509,4.72751395 7.14632013,4.72751395 C6.90827014,4.72751395 6.60514246,4.72751395 6.23693709,4.72751395 Z" id="outline-banana" stroke="#80514E" stroke-width="0.578733766"></path>
                    <path d="M0.279652277,24.4767427 C0.0370683481,24.4767427 0,25.1757165 0,25.4467445 C0,25.7177725 0.701769296,26.1626529 0.685721657,26.1626529 C1.0727584,26.1626529 1.16592582,25.8816679 0.965223914,25.3196979 C0.789929828,24.7577277 0.56140595,24.4767427 0.279652277,24.4767427 Z" id="end" stroke="#80514E" stroke-width="0.578733766" fill="#80514E" fill-rule="nonzero"></path>
                    <path d="M8.53120082,8.8934713 C8.93541549,14.1555831 8.82365518,17.651087 8.1959199,19.3799829 C7.25431696,21.9733266 2.79165989,24.8717013 1.95634021,25.0310019" id="black-line" stroke="#80514E" stroke-width="0.578733766" stroke-linecap="round"></path>
                    <path d="M5.21955724,1.54174181 C5.21955724,1.54174181 5.52175405,2.47657646 6.12614767,4.34624575 L7.07181115,4.70287477 L7.18704239,0.521127606 C5.87538562,1.20153708 5.21955724,1.54174181 5.21955724,1.54174181 Z" id="Path-3" fill="#FCB940" fill-rule="nonzero"></path>
                    <g id="stem" transform="translate(5.219557, 0.000000)" stroke="#80514E" stroke-width="0.578733766">
                        <g id="path-1-link">
                            <path d="M0,1.54174181 C0.14296141,0.777312021 1.87274439,-0.292543934 1.92676289,0.0744223029 C2.07075867,1.05263531 2.07075867,2.60366587 1.92676289,4.72751395 C1.40565713,4.7779685 1.08452999,4.7779685 0.963381445,4.72751395 C0.759911693,3.8013715 0.391910793,2.88149652 0,1.54174181 Z" id="path-1"></path>
                        </g>
                    </g>
                    <path d="M6.2203186,4.27455201 L7.01320711,4.59534417 C6.99038736,4.76996955 6.99038736,4.86057376 7.01320711,4.86715678 C7.41303399,4.80972538 6.99797228,4.94138204 6.99797228,4.98156484 C6.77158382,5.08365733 6.32837636,4.90781645 6.26146152,4.88220216 C6.31001328,4.83625875 6.33428915,4.78469601 6.33428915,4.72751395 L6.2203186,4.27455201 Z" id="Path-4" fill="#FCB940" fill-rule="nonzero"></path>
                    <path d="M5.21955724,1.54174181 C5.6671733,1.44582702 6.03909917,1.31568112 6.33533485,1.1513041 C6.86850978,0.855452828 7.06917431,0.84230893 7.14632013,0.619330391 C7.18651689,0.503147611 7.25431696,0.0744223029 7.14632013,0.0744223029 C6.31068104,0.0744223029 5.66842674,0.563528809 5.21955724,1.54174181 Z" id="Path-2" stroke="#80514E" stroke-width="0.578733766" fill="#80514E" fill-rule="nonzero" stroke-linecap="round" stroke-linejoin="round"></path>
                    <path d="M6.82650797,6.84148195 C6.44679686,6.8158822 6.06362484,7.4477296 5.67699189,8.73702412 C5.67699189,11.8115487 5.67699189,14.4654013 5.67699189,16.6985819 C5.46734307,18.5405068 5.12843815,19.7466511 4.66027713,20.3170147 C3.97112465,21.3918766 3.33604242,22.2503634 2.75503049,22.8924751 C1.88351258,23.8556427 1.50002738,23.8556427 1.50002738,24.4767427 C1.50002738,24.8908094 1.85420862,24.8908094 2.56257111,24.4767427 L3.49947565,23.8556427 C5.20338309,22.5098233 6.15121725,21.6909048 6.34297811,21.3988873 C6.55622312,21.0741534 7.27384048,20.4420203 7.70964523,18.9304323 C7.86168748,18.403074 8.05130791,17.7187477 8.17479703,16.6985819 C8.43063757,14.5850376 8.37154292,11.983334 7.99751305,8.8934713 C7.59655411,7.55107814 7.20621908,6.86708168 6.82650797,6.84148195 Z" id="Path-6" fill="#FDDA63" fill-rule="nonzero"></path>
                </g>
                <g id="banana" transform="translate(10.454545, 4.000000)">
                    <path d="M6.23693709,4.72751395 C5.22264728,5.52181921 4.62199195,6.26311134 4.43497109,6.95139033 C3.96246273,9.52153857 4.22576946,9.81868326 4.22576946,13.1932228 C4.22576946,16.4441063 4.22576946,16.9144365 3.76838314,19.0605292 C2.69935408,21.7588887 1.79612077,21.7588887 0.896254584,22.8468811 C0.283815518,23.5873568 0.0540199855,24.5188814 0.206867986,25.6414548 C1.01532847,26.4251178 2.02033999,26.759512 3.22190255,26.6446372 C5.57046431,26.4201041 7.68636207,24.6527483 8.76477463,23.2812349 C9.59041784,22.2311908 10.0833334,20.2991101 10.2435214,17.4849926 C10.3842041,15.2391081 10.4545455,13.0507536 10.4545455,10.9199294 C10.2435214,8.78828973 9.84584978,7.69431781 9.21970285,5.74214063 C8.76477463,4.98647042 7.50339509,4.72751395 7.14632013,4.72751395 C6.90827014,4.72751395 6.60514246,4.72751395 6.23693709,4.72751395 Z" id="background-banana" stroke="#80514E" stroke-width="0.578733766" fill="#FDD449" fill-rule="nonzero"></path>
                    <path d="M8.53120082,8.8934713 C8.53120082,9.68256194 9.13752284,16.7866391 8.1959199,19.3799829 C7.25431696,21.9733266 2.79165989,24.9341814 1.95634021,25.093482 C1.08403999,25.4069491 0.913743616,25.6748469 1.4454511,25.8971755 C2.08423382,26.2026334 2.59536001,26.3553624 2.97882966,26.3553624 C3.55403414,26.3553624 6.65648052,25.4517721 8.01158385,23.8586591 C8.91498606,22.7965839 9.5547341,20.8752526 9.93082794,18.0946656 L10.2105747,10.4269452 C9.49520679,5.51579963 8.93541549,5.00464166 8.53120082,8.8934713 Z" id="line-shadow" stroke="#FECA1B" stroke-width="0.578733766" fill="#FECA1B" fill-rule="nonzero" stroke-linecap="round"></path>
                    <path d="M6.28839054,5.04855101 C5.44159515,5.81313645 4.94012885,6.5266923 4.78399162,7.18921857 C4.38951077,9.66320186 4.60933643,9.94922854 4.60933643,13.197506 C4.60933643,16.3267541 4.60933643,16.7794863 4.22748045,18.8452805 C3.33498516,21.4426779 1.74761834,22.2702125 0.991114082,23.2932493 C0.437755577,24.0415678 0.263529044,24.852097 0.468434483,25.724837 C1.47466861,26.236101 2.47935711,26.4364447 3.48250001,26.3258681 C5.44323278,26.1097361 7.66893894,24.1909636 8.56926818,22.8707669 C9.25856906,21.8600114 9.7380769,20.0534832 10.0077917,17.4511824 C10.1429803,15.1838253 10.2105747,13.0245983 10.2105747,10.9735012 C10.034398,8.92161921 9.51748298,7.76552944 8.99473463,5.88639516 C8.61493085,5.15899918 7.34571239,5.04855101 7.04760289,5.04855101 C6.84886322,5.04855101 6.59579243,5.04855101 6.28839054,5.04855101 Z" id="inner-shadow" stroke="#FCB940" stroke-width="0.584304542"></path>
                    <path d="M6.23693709,4.72751395 C5.22264728,5.52181921 4.62199195,6.26311134 4.43497109,6.95139033 C3.96246273,9.52153857 4.22576946,9.81868326 4.22576946,13.1932228 C4.22576946,16.4441063 4.22576946,16.9144365 3.76838314,19.0605292 C2.69935408,21.7588887 1.79612077,21.7588887 0.896254584,22.8468811 C0.283815518,23.5873568 0.0540199855,24.5188814 0.206867986,25.6414548 C1.01532847,26.4251178 2.02033999,26.759512 3.22190255,26.6446372 C5.57046431,26.4201041 7.68636207,24.6527483 8.76477463,23.2812349 C9.59041784,22.2311908 10.0833334,20.2991101 10.2435214,17.4849926 C10.3842041,15.2391081 10.4545455,13.0507536 10.4545455,10.9199294 C10.2435214,8.78828973 9.84584978,7.69431781 9.21970285,5.74214063 C8.76477463,4.98647042 7.50339509,4.72751395 7.14632013,4.72751395 C6.90827014,4.72751395 6.60514246,4.72751395 6.23693709,4.72751395 Z" id="outline-banana" stroke="#80514E" stroke-width="0.578733766"></path>
                    <path d="M0.279652277,24.4767427 C0.0370683481,24.4767427 0,25.1757165 0,25.4467445 C0,25.7177725 0.701769296,26.1626529 0.685721657,26.1626529 C1.0727584,26.1626529 1.16592582,25.8816679 0.965223914,25.3196979 C0.789929828,24.7577277 0.56140595,24.4767427 0.279652277,24.4767427 Z" id="end" stroke="#80514E" stroke-width="0.578733766" fill="#80514E" fill-rule="nonzero"></path>
                    <path d="M8.53120082,8.8934713 C8.93541549,14.1555831 8.82365518,17.651087 8.1959199,19.3799829 C7.25431696,21.9733266 2.79165989,24.8717013 1.95634021,25.0310019" id="black-line" stroke="#80514E" stroke-width="0.578733766" stroke-linecap="round"></path>
                    <path d="M5.21955724,1.54174181 C5.21955724,1.54174181 5.52175405,2.47657646 6.12614767,4.34624575 L7.07181115,4.70287477 L7.18704239,0.521127606 C5.87538562,1.20153708 5.21955724,1.54174181 5.21955724,1.54174181 Z" id="Path-3" fill="#FCB940" fill-rule="nonzero"></path>
                    <g id="stem" transform="translate(5.219557, 0.000000)" stroke="#80514E" stroke-width="0.578733766">
                        <g id="path-3-link">
                            <path d="M-3.49426764e-25,1.54174181 C0.14296141,0.777312021 1.87274439,-0.292543934 1.92676289,0.0744223029 C2.07075867,1.05263531 2.07075867,2.60366587 1.92676289,4.72751395 C1.40565713,4.7779685 1.08452999,4.7779685 0.963381445,4.72751395 C0.759911693,3.8013715 0.391910793,2.88149652 -3.49426764e-25,1.54174181 Z" id="path-3"></path>
                        </g>
                    </g>
                    <path d="M6.2203186,4.27455201 L7.01320711,4.59534417 C6.99038736,4.76996955 6.99038736,4.86057376 7.01320711,4.86715678 C7.41303399,4.80972538 6.99797228,4.94138204 6.99797228,4.98156484 C6.77158382,5.08365733 6.32837636,4.90781645 6.26146152,4.88220216 C6.31001328,4.83625875 6.33428915,4.78469601 6.33428915,4.72751395 L6.2203186,4.27455201 Z" id="Path-4" fill="#FCB940" fill-rule="nonzero"></path>
                    <path d="M5.21955724,1.54174181 C5.6671733,1.44582702 6.03909917,1.31568112 6.33533485,1.1513041 C6.86850978,0.855452828 7.06917431,0.84230893 7.14632013,0.619330391 C7.18651689,0.503147611 7.25431696,0.0744223029 7.14632013,0.0744223029 C6.31068104,0.0744223029 5.66842674,0.563528809 5.21955724,1.54174181 Z" id="Path-2" stroke="#80514E" stroke-width="0.578733766" fill="#80514E" fill-rule="nonzero" stroke-linecap="round" stroke-linejoin="round"></path>
                    <path d="M6.82650797,6.84148195 C6.44679686,6.8158822 6.06362484,7.4477296 5.67699189,8.73702412 C5.67699189,11.8115487 5.67699189,14.4654013 5.67699189,16.6985819 C5.46734307,18.5405068 5.12843815,19.7466511 4.66027713,20.3170147 C3.97112465,21.3918766 3.33604242,22.2503634 2.75503049,22.8924751 C1.88351258,23.8556427 1.50002738,23.8556427 1.50002738,24.4767427 C1.50002738,24.8908094 1.85420862,24.8908094 2.56257111,24.4767427 L3.49947565,23.8556427 C5.20338309,22.5098233 6.15121725,21.6909048 6.34297811,21.3988873 C6.55622312,21.0741534 7.27384048,20.4420203 7.70964523,18.9304323 C7.86168748,18.403074 8.05130791,17.7187477 8.17479703,16.6985819 C8.43063757,14.5850376 8.37154292,11.983334 7.99751305,8.8934713 C7.59655411,7.55107814 7.20621908,6.86708168 6.82650797,6.84148195 Z" id="Path-6" fill="#FDDA63" fill-rule="nonzero"></path>
                </g>
            </g>
        </g>
    </g>
</svg>